<svg width="20" height="21" viewBox="0 0 20 21" fill="none" xmlns="http://www.w3.org/2000/svg">
<path d="M15.2507 8.0701H10.5007V10.2578C10.5007 11.8087 9.49132 13.0705 8.2507 13.0705C7.01007 13.0705 6.0007 11.8087 6.0007 10.2578V5.50738L3.97258 7.03095C3.36946 7.48021 3.00071 8.29668 3.00071 9.17176V11.0196L0.500712 12.8244C0.0225877 13.1682 -0.143037 13.9339 0.135088 14.5316L2.63508 19.9461C2.91008 20.5438 3.52258 20.747 4.00071 20.4032L7.23195 18.0709H11.5007C12.6038 18.0709 13.5007 16.9498 13.5007 15.5707H14.0007C14.5538 15.5707 15.0007 15.0121 15.0007 14.3206V11.8204H15.2507C15.6663 11.8204 16.0007 11.4024 16.0007 10.8828V9.00768C16.0007 8.4881 15.6663 8.0701 15.2507 8.0701ZM19.8663 6.60904L17.3663 1.19452C17.0913 0.596813 16.4788 0.393671 16.0007 0.73745L12.7694 3.06968H9.5757C9.2007 3.06968 8.83507 3.2025 8.51632 3.44862L7.46945 4.26509C7.1757 4.49167 7.0007 4.89405 7.0007 5.32378V10.2578C7.0007 11.1211 7.56007 11.8204 8.2507 11.8204C8.94132 11.8204 9.5007 11.1211 9.5007 10.2578V6.82H15.2507C16.2163 6.82 17.0007 7.80055 17.0007 9.00768V10.1211L19.5007 8.31622C19.9788 7.96853 20.1413 7.20675 19.8663 6.60904Z" fill="#252525"/>
</svg>
